# xmcd CD database file
#
# Track frame offsets:
#	150
#	13603
#	27028
#	38503
#	51786
#	65869
#	77814
#	91891
#	105411
#	120228
#	134356
#	147616
#	160785
#	173101
#	185786
#	200046
#	215106
#	228603
#	242652
#	255391
#	270627
#	282890
#
# Disc length: 3930 seconds
#
# Revision: 2
# Processed by: cddbd v1.5.2PL0 Copyright (c) Steve Scherf et al.
# Submitted via: CDex 1.51
#
DISCID=3b0f5816
DTITLE=George Shearing - The Ultimate Jazz Archive 25 - Swing to BeBop Modern Jazz
DYEAR=2005
DGENRE=Jazz
TTITLE0=When Darkness Falls   
TTITLE1=So Rare   
TTITLE2=Buccaneer's Bounce   
TTITLE3=Have You Met Miss Jones?   
TTITLE4=Sweet And Lovely   
TTITLE5=Bop's Your Uncle   
TTITLE6=Sophisticated Lady   
TTITLE7=Cozy's Bop   
TTITLE8=September In The Rain   
TTITLE9=East Of The Sun (West Of The Moon)   
TTITLE10=Conception   
TTITLE11=Pick Yourself Up   
TTITLE12=Jumpin' With Symphony Sid   
TTITLE13=I'll Remember April   
TTITLE14=Summertime   
TTITLE15=I Didn't Know What Time It Was   
TTITLE16=I'll Be Around   
TTITLE17=Easy Living   
TTITLE18=How High The Moon   
TTITLE19=Lonely Momemts   
TTITLE20=Lullaby Of Birdland   
TTITLE21=Love Is Just Around The Corner   
EXTD=YEAR: 2005
EXTT0=
EXTT1=
EXTT2=
EXTT3=
EXTT4=
EXTT5=
EXTT6=
EXTT7=
EXTT8=
EXTT9=
EXTT10=
EXTT11=
EXTT12=
EXTT13=
EXTT14=
EXTT15=
EXTT16=
EXTT17=
EXTT18=
EXTT19=
EXTT20=
EXTT21=
PLAYORDER=
